Coordinates
version=1
nRows=14
nColumns=40
inDegrees=yes

Units are S.I. units (second, meters, Newtons, ...)
If the header above contains a line with 'inDegrees', this indicates whether rotational values are in degrees (yes) or radians (no).

endheader
time	pelvis_tilt	pelvis_list	pelvis_rotation	pelvis_tx	pelvis_ty	pelvis_tz	hip_flexion_r	hip_adduction_r	hip_rotation_r	knee_angle_r	knee_angle_r_beta	ankle_angle_r	subtalar_angle_r	mtp_angle_r	hip_flexion_l	hip_adduction_l	hip_rotation_l	knee_angle_l	knee_angle_l_beta	ankle_angle_l	subtalar_angle_l	mtp_angle_l	lumbar_extension	lumbar_bending	lumbar_rotation	arm_flex_r	arm_add_r	arm_rot_r	elbow_flex_r	pro_sup_r	wrist_flex_r	wrist_dev_r	arm_flex_l	arm_add_l	arm_rot_l	elbow_flex_l	pro_sup_l	wrist_flex_l	wrist_dev_l
      0.18000000	     -3.71198386	      6.45098588	      5.92857881	     -0.47309558	      0.89501717	      0.22821735	     31.65460649	    -12.78017654	    -18.02263294	     10.79273655	      0.18836879	     -0.55497111	      6.36005531	      0.00000000	    -18.46300440	      2.71834760	    -17.49123150	     12.16412163	      0.21230397	      2.16965801	     15.34551892	      0.00000000	      1.33147052	     -3.82825129	     -0.60532481	     43.67032831	    -16.25679144	     43.67032831	     75.64278328	     45.07151494	      0.00000000	      0.00000000	     43.67032831	    -16.25679144	     43.67032831	     75.64278328	     45.07151494	      0.00000000	      0.00000000
      0.18500000	     -3.48372901	      6.18033231	      5.96815885	     -0.46506568	      0.89514197	      0.22877244	     31.32434574	    -12.52365087	    -18.08297142	     11.45010090	      0.19984196	     -1.08320816	      5.69857950	      0.00000000	    -18.86008160	      2.21058404	    -17.53684287	     12.63919462	      0.22059556	      1.08188745	     14.83226146	      0.00000000	      1.16949065	     -3.36567487	     -0.88889682	     43.67212053	    -16.25399225	     43.67212053	     75.63998143	     45.07065232	      0.00000000	      0.00000000	     43.67212053	    -16.25399225	     43.67212053	     75.63998143	     45.07065232	      0.00000000	      0.00000000
      0.19000000	     -3.26916651	      5.86459364	      6.04599620	     -0.45701839	      0.89529102	      0.22921885	     30.95922014	    -12.24140656	    -18.01986248	     12.08685458	      0.21095541	     -1.64927571	      5.09284736	      0.00000000	    -19.22584210	      1.66761325	    -17.45691935	     13.10728202	      0.22876523	      0.15282279	     14.27726440	      0.00000000	      1.01688897	     -2.92545618	     -1.21232541	     43.67400971	    -16.25104438	     43.67400971	     75.63703748	     45.06975341	      0.00000000	      0.00000000	     43.67400971	    -16.25104438	     43.67400971	     75.63703748	     45.06975341	      0.00000000	      0.00000000
      0.19500000	     -3.00916263	      5.56128668	      6.03710077	     -0.44890885	      0.89560829	      0.22990592	     30.58294469	    -11.93482300	    -18.00363114	     12.77120598	      0.22289959	     -2.22200083	      4.52435613	      0.00000000	    -19.59351758	      1.13519545	    -17.49649790	     13.65112920	      0.23825715	     -0.96156274	     13.64997731	      0.00000000	      0.83310768	     -2.51647679	     -1.52219680	     43.67542034	    -16.24884492	     43.67542034	     75.63484495	     45.06908834	      0.00000000	      0.00000000	     43.67542034	    -16.24884492	     43.67542034	     75.63484495	     45.06908834	      0.00000000	      0.00000000
      0.20000000	     -2.70687695	      5.10873283	      6.12867362	     -0.44082703	      0.89613443	      0.23024260	     30.08240423	    -11.52759238	    -18.14795892	     13.36946434	      0.23334117	     -2.94273819	      3.77316423	      0.00000000	    -19.93629317	      0.44811960	    -17.35328572	     14.27955511	      0.24922525	     -2.06559939	     12.66388028	      0.00000000	      0.62675422	     -1.90844382	     -2.06381915	     43.67856617	    -16.24394535	     43.67856617	     75.62997413	     45.06762552	      0.00000000	      0.00000000	     43.67856617	    -16.24394535	     43.67856617	     75.62997413	     45.06762552	      0.00000000	      0.00000000
      0.20500000	     -2.38704345	      4.75352964	      6.06928204	     -0.43269701	      0.89678401	      0.23106001	     29.62366480	    -11.14608531	    -18.15408218	     14.02017938	      0.24469829	     -3.52069541	      3.28992804	      0.00000000	    -20.27270579	     -0.12796700	    -17.41910547	     14.93657358	      0.26069239	     -3.33161881	     11.84084881	      0.00000000	      0.38623354	     -1.45885144	     -2.46458649	     43.68094675	    -16.24024295	     43.68094675	     75.62630617	     45.06653769	      0.00000000	      0.00000000	     43.68094675	    -16.24024295	     43.68094675	     75.62630617	     45.06653769	      0.00000000	      0.00000000
      0.21000000	     -2.05554546	      4.36550242	      5.97556646	     -0.42453917	      0.89751053	      0.23196371	     29.17261391	    -10.72751716	    -18.20947023	     14.73677505	      0.25720525	     -4.04759065	      2.80976938	      0.00000000	    -20.55452066	     -0.74741428	    -17.55585342	     15.71491707	      0.27427704	     -4.71285251	     10.91351892	      0.00000000	      0.13800836	     -1.00841530	     -2.81691936	     43.68280328	    -16.23735851	     43.68280328	     75.62345561	     45.06569979	      0.00000000	      0.00000000	     43.68280328	    -16.23735851	     43.68280328	     75.62345561	     45.06569979	      0.00000000	      0.00000000
      0.21500000	     -1.70420546	      3.89711175	      5.92765708	     -0.41643457	      0.89837823	      0.23267988	     28.66502555	    -10.25291164	    -18.31620534	     15.39710639	      0.26873020	     -4.60365504	      2.29560309	      0.00000000	    -20.76476424	     -1.45857291	    -17.63738348	     16.63539842	      0.29034247	     -6.08540405	      9.72993748	      0.00000000	     -0.11960839	     -0.42629068	     -3.26759379	     43.68553520	    -16.23311894	     43.68553520	     75.61927768	     45.06448431	      0.00000000	      0.00000000	     43.68553520	    -16.23311894	     43.68553520	     75.61927768	     45.06448431	      0.00000000	      0.00000000
      0.22000000	     -1.34460858	      3.44311825	      5.80641848	     -0.40830188	      0.89933471	      0.23362138	     28.14749875	     -9.74006298	    -18.33221790	     16.04788252	      0.28008839	     -5.06578658	      1.83984206	      0.00000000	    -20.93748452	     -2.15148507	    -17.80872406	     17.62999553	      0.30770147	     -7.54337293	      8.56914660	      0.00000000	     -0.39114746	      0.09921061	     -3.66071915	     43.68827823	    -16.22886802	     43.68827823	     75.61510263	     45.06328440	      0.00000000	      0.00000000	     43.68827823	    -16.22886802	     43.68827823	     75.61510263	     45.06328440	      0.00000000	      0.00000000
      0.22500000	     -0.96890138	      3.02643500	      5.59755010	     -0.40018790	      0.90039657	      0.23484626	     27.65348287	     -9.21734219	    -18.27854391	     16.74791741	      0.29230630	     -5.38208340	      1.40141081	      0.00000000	    -21.07821957	     -2.81773390	    -18.11546588	     18.70760202	      0.32650925	     -9.13728132	      7.42558318	      0.00000000	     -0.69650393	      0.54443391	     -3.94180696	     43.69005556	    -16.22611671	     43.69005556	     75.61240768	     45.06251736	      0.00000000	      0.00000000	     43.69005556	    -16.22611671	     43.69005556	     75.61240768	     45.06251736	      0.00000000	      0.00000000
      0.23000000	     -0.60313452	      2.67573694	      5.34538261	     -0.39212623	      0.90152153	      0.23615905	     27.15532461	     -8.72427508	    -18.01530042	     17.42648493	      0.30414954	     -5.60186569	      1.08661859	      0.00000000	    -21.21726153	     -3.36580624	    -18.23759957	     19.76202454	      0.34491240	    -10.48232490	      6.49380657	      0.00000000	     -1.03456283	      0.92363652	     -4.14719157	     43.69104497	    -16.22458614	     43.69104497	     75.61091084	     45.06209373	      0.00000000	      0.00000000	     43.69104497	    -16.22458614	     43.69104497	     75.61091084	     45.06209373	      0.00000000	      0.00000000
      0.23500000	     -0.26068454	      2.15625183	      5.12204120	     -0.38407589	      0.90261265	      0.23738682	     26.65819661	     -8.06061963	    -18.00783186	     18.05347044	      0.31509250	     -5.81327289	      0.43096658	      0.00000000	    -21.07696203	     -4.20793823	    -18.79727844	     21.31028640	      0.37193466	    -12.40083174	      4.76699631	      0.00000000	     -1.26947636	      1.49014957	     -4.41288242	     43.69263129	    -16.22213372	     43.69263129	     75.60851623	     45.06141993	      0.00000000	      0.00000000	     43.69263129	    -16.22213372	     43.69263129	     75.60851623	     45.06141993	      0.00000000	      0.00000000
      0.24000000	      0.05998853	      1.65043949	      4.87667411	     -0.37612263	      0.90370407	      0.23869279	     26.13366087	     -7.35555362	    -17.75497443	     18.55776887	      0.32389417	     -6.01383944	     -0.17998977	      0.00000000	    -20.89532838	     -5.01648430	    -19.16223189	     22.88833675	      0.39947684	    -13.98920790	      3.23404250	      0.00000000	     -1.49709770	      2.03896353	     -4.63332468	     43.69440634	    -16.21939175	     43.69440634	     75.60584419	     45.06067345	      0.00000000	      0.00000000	     43.69440634	    -16.21939175	     43.69440634	     75.60584419	     45.06067345	      0.00000000	      0.00000000
      0.24500000	      0.39433234	      1.36018810	      4.50197271	     -0.36818385	      0.90496726	      0.24045661	     25.62293807	     -6.80418635	    -17.25143886	     19.09770481	      0.33331783	     -6.11816722	     -0.34428371	      0.00000000	    -20.96393603	     -5.40137578	    -18.84943052	     23.96081148	      0.41819505	    -14.94250317	      2.71080968	      0.00000000	     -1.85173059	      2.24650885	     -4.70563225	     43.69496574	    -16.21852824	     43.69496574	     75.60500403	     45.06044003	      0.00000000	      0.00000000	     43.69496574	    -16.21852824	     43.69496574	     75.60500403	     45.06044003	      0.00000000	      0.00000000
